<svg xmlns="http://www.w3.org/2000/svg" xmlns:xlink="http://www.w3.org/1999/xlink" viewBox="0 0 286.88 186.63"><defs><style>.cls-1{isolation:isolate;}.cls-2,.cls-21,.cls-22,.cls-23,.cls-24,.cls-25,.cls-26,.cls-27,.cls-28,.cls-29,.cls-30,.cls-31,.cls-32,.cls-33,.cls-34,.cls-35,.cls-36,.cls-37,.cls-51,.cls-54{mix-blend-mode:multiply;}.cls-21,.cls-3,.cls-92{fill:#fff;}.cls-21,.cls-3,.cls-39,.cls-52,.cls-67{opacity:0;}.cls-4{fill:#f7f7f7;}.cls-22,.cls-4{opacity:0.06;}.cls-5{fill:#f0f0f0;}.cls-23,.cls-5{opacity:0.13;}.cls-6{fill:#e8e8e8;}.cls-24,.cls-6{opacity:0.19;}.cls-28,.cls-7{fill:#e0e0e0;}.cls-25,.cls-7{opacity:0.25;}.cls-8{fill:#d9d9d9;}.cls-26,.cls-8{opacity:0.31;}.cls-9{fill:#d1d1d1;}.cls-27,.cls-9{opacity:0.38;}.cls-10,.cls-33{fill:#c9c9c9;}.cls-10,.cls-28{opacity:0.44;}.cls-11{fill:#c2c2c2;}.cls-11,.cls-29,.cls-66{opacity:0.5;}.cls-12{fill:#bababa;}.cls-12,.cls-30{opacity:0.56;}.cls-13{fill:#b3b3b3;}.cls-13,.cls-31{opacity:0.63;}.cls-14{fill:#ababab;}.cls-14,.cls-32{opacity:0.69;}.cls-15{fill:#a3a3a3;}.cls-15,.cls-33{opacity:0.75;}.cls-16{fill:#9c9c9c;}.cls-16,.cls-34{opacity:0.81;}.cls-17{fill:#949494;}.cls-17,.cls-35{opacity:0.88;}.cls-18{fill:#8c8c8c;}.cls-18,.cls-36{opacity:0.94;}.cls-19{fill:#858585;}.cls-20{fill:url(#linear-gradient);}.cls-22{fill:#fbfbfb;}.cls-23{fill:#f6f6f6;}.cls-24{fill:#f2f2f2;}.cls-25{fill:#ededed;}.cls-26{fill:#e9e9e9;}.cls-27{fill:#e4e4e4;}.cls-29{fill:#dbdbdb;}.cls-30{fill:#d7d7d7;}.cls-31{fill:#d2d2d2;}.cls-32{fill:#cecece;}.cls-34{fill:#c5c5c5;}.cls-35{fill:#c1c1c1;}.cls-36{fill:#bcbcbc;}.cls-37{fill:#b8b8b8;}.cls-38{fill:url(#linear-gradient-2);}.cls-39,.cls-40,.cls-41,.cls-42,.cls-43,.cls-44,.cls-45,.cls-46,.cls-47,.cls-48,.cls-49,.cls-50,.cls-51,.cls-52,.cls-53,.cls-54,.cls-55,.cls-56,.cls-57,.cls-58,.cls-59,.cls-60,.cls-61,.cls-62,.cls-63,.cls-64,.cls-65,.cls-66,.cls-69,.cls-71,.cls-73,.cls-75,.cls-77,.cls-79,.cls-81,.cls-83,.cls-85,.cls-87,.cls-88{fill:#1078ad;}.cls-40{opacity:0.09;}.cls-41{opacity:0.18;}.cls-42{opacity:0.27;}.cls-43{opacity:0.36;}.cls-44{opacity:0.45;}.cls-45{opacity:0.55;}.cls-46{opacity:0.64;}.cls-47{opacity:0.73;}.cls-48{opacity:0.82;}.cls-49{opacity:0.91;}.cls-51{opacity:0.78;}.cls-52{mix-blend-mode:soft-light;}.cls-53{opacity:0.73;}.cls-53,.cls-55{mix-blend-mode:screen;}.cls-55{opacity:0.64;}.cls-56{opacity:0.05;}.cls-57{opacity:0.09;}.cls-58{opacity:0.14;}.cls-59{opacity:0.18;}.cls-60{opacity:0.23;}.cls-61{opacity:0.27;}.cls-62{opacity:0.32;}.cls-63{opacity:0.36;}.cls-64{opacity:0.41;}.cls-65{opacity:0.45;}.cls-68{opacity:0.09;}.cls-69{opacity:0.97;}.cls-70{opacity:0.18;}.cls-71{opacity:0.94;}.cls-72{opacity:0.27;}.cls-73{opacity:0.92;}.cls-74{opacity:0.36;}.cls-75{opacity:0.89;}.cls-76{opacity:0.45;}.cls-77{opacity:0.86;}.cls-78{opacity:0.55;}.cls-79{opacity:0.83;}.cls-80{opacity:0.64;}.cls-81{opacity:0.8;}.cls-82{opacity:0.73;}.cls-83{opacity:0.77;}.cls-84{opacity:0.82;}.cls-85{opacity:0.75;}.cls-86{opacity:0.91;}.cls-87{opacity:0.72;}.cls-88{opacity:0.69;}.cls-89{fill:#e6262d;}.cls-90{font-size:28.49px;fill:#fffcff;font-family:Roboto-Italic, Roboto;font-style:italic;}.cls-91{fill:#16a185;}.cls-93{fill:none;stroke:#3a3f57;stroke-linecap:round;stroke-linejoin:round;stroke-width:2.86px;}.cls-94{fill:#3c3c3b;}.cls-95{fill:#3a3f57;}</style><linearGradient id="linear-gradient" x1="131.86" y1="210.39" x2="131.86" y2="30.03" gradientUnits="userSpaceOnUse"><stop offset="0" stop-color="#dbdbdb"/><stop offset="0.15" stop-color="#c9c9c9"/><stop offset="0.45" stop-color="#9c9c9c"/><stop offset="0.64" stop-color="#7d7d7d"/><stop offset="0.72" stop-color="#737373"/><stop offset="0.86" stop-color="#595959"/><stop offset="0.89" stop-color="#525252"/></linearGradient><linearGradient id="linear-gradient-2" x1="132.74" y1="71.26" x2="132.74" y2="193.53" gradientUnits="userSpaceOnUse"><stop offset="0.02" stop-color="#b8b8b8"/><stop offset="0.13" stop-color="#e6e6e6"/><stop offset="0.2" stop-color="#efefef"/><stop offset="0.33" stop-color="#fbfbfb"/><stop offset="0.47" stop-color="#fff"/><stop offset="0.7" stop-color="#fdfdfd"/><stop offset="0.84" stop-color="#f4f4f4"/><stop offset="0.95" stop-color="#e7e7e7"/><stop offset="0.98" stop-color="#e0e0e0"/></linearGradient></defs><g class="cls-1"><g id="Capa_1" data-name="Capa 1"><g class="cls-2"><path class="cls-3" d="M270,184.72c0,11-64.22,20-143.44,20s-143.44-8.95-143.44-20,64.22-20,143.44-20S270,173.69,270,184.72Z" transform="translate(16.88 -18.07)"/><path class="cls-4" d="M267.75,184.52c0,10.61-63,19.2-140.73,19.2s-140.73-8.59-140.73-19.2,63-19.2,140.73-19.2S267.75,173.92,267.75,184.52Z" transform="translate(16.88 -18.07)"/><path class="cls-5" d="M265.5,184.33c0,10.17-61.79,18.42-138,18.42s-138-8.25-138-18.42,61.79-18.42,138-18.42S265.5,174.16,265.5,184.33Z" transform="translate(16.88 -18.07)"/><path class="cls-6" d="M263.25,184.13c0,9.74-60.58,17.64-135.3,17.64s-135.3-7.9-135.3-17.64S53.22,166.5,128,166.5,263.25,174.4,263.25,184.13Z" transform="translate(16.88 -18.07)"/><path class="cls-7" d="M261,183.94c0,9.3-59.36,16.85-132.59,16.85S-4.18,193.24-4.18,183.94s59.36-16.85,132.59-16.85S261,174.63,261,183.94Z" transform="translate(16.88 -18.07)"/><path class="cls-8" d="M258.75,183.74c0,8.87-58.15,16.07-129.87,16.07S-1,192.61-1,183.74s58.14-16.07,129.88-16.07S258.75,174.87,258.75,183.74Z" transform="translate(16.88 -18.07)"/><path class="cls-9" d="M256.5,183.54c0,8.45-56.93,15.29-127.16,15.29S2.17,192,2.17,183.54s56.94-15.28,127.17-15.28S256.5,175.11,256.5,183.54Z" transform="translate(16.88 -18.07)"/><path class="cls-10" d="M254.25,183.35c0,8-55.72,14.5-124.45,14.5S5.35,191.36,5.35,183.35s55.72-14.5,124.45-14.5S254.25,175.34,254.25,183.35Z" transform="translate(16.88 -18.07)"/><path class="cls-11" d="M252,183.15c0,7.58-54.5,13.73-121.74,13.73S8.53,190.73,8.53,183.15,63,169.44,130.26,169.44,252,175.58,252,183.15Z" transform="translate(16.88 -18.07)"/><path class="cls-12" d="M249.75,183c0,7.14-53.29,12.94-119,12.94s-119-5.8-119-12.94S65,170,130.73,170,249.75,175.82,249.75,183Z" transform="translate(16.88 -18.07)"/><path class="cls-13" d="M247.5,182.76c0,6.72-52.07,12.16-116.31,12.16S14.88,189.48,14.88,182.76,67,170.61,131.19,170.61,247.5,176.06,247.5,182.76Z" transform="translate(16.88 -18.07)"/><path class="cls-14" d="M245.25,182.57c0,6.28-50.86,11.37-113.6,11.37s-113.6-5.09-113.6-11.37,50.86-11.37,113.6-11.37S245.25,176.29,245.25,182.57Z" transform="translate(16.88 -18.07)"/><path class="cls-15" d="M243,182.37c0,5.85-49.64,10.59-110.88,10.59S21.23,188.22,21.23,182.37s49.64-10.58,110.89-10.58S243,176.53,243,182.37Z" transform="translate(16.88 -18.07)"/><path class="cls-16" d="M240.75,182.18c0,5.41-48.43,9.8-108.17,9.8S24.4,187.59,24.4,182.18s48.44-9.8,108.18-9.8S240.75,176.77,240.75,182.18Z" transform="translate(16.88 -18.07)"/><path class="cls-17" d="M238.5,182c0,5-47.21,9-105.46,9s-105.46-4-105.46-9S74.8,173,133,173,238.5,177,238.5,182Z" transform="translate(16.88 -18.07)"/><path class="cls-18" d="M236.25,181.79c0,4.55-46,8.24-102.74,8.24s-102.75-3.69-102.75-8.24,46-8.24,102.75-8.24S236.25,177.24,236.25,181.79Z" transform="translate(16.88 -18.07)"/><path class="cls-19" d="M234,181.59c0,4.12-44.78,7.46-100,7.46s-100-3.34-100-7.46,44.79-7.45,100-7.45S234,177.48,234,181.59Z" transform="translate(16.88 -18.07)"/></g><path class="cls-20" d="M56.82,180.69C35.44,180.28,31,171.06,31.56,160L39,62.68c.53-11,8.18-28.4,19.76-28.4h.51L203.86,34c11.57,0,19.59,8,19.85,18.05h0l8.42,109.69c1.4,14.87-13.42,19-25.72,19H56.82Z" transform="translate(16.88 -18.07)"/><path class="cls-21" d="M42.8,78.28c-1.9.49-1.47-6-3.18-2.55-.85,1.73-3.07,21-5.23,41.25s-4.26,41.53-4.91,47.26c-1,9.14,2.84,14.5,7.86,17.65s11.2,4.09,14.82,4.4c7.22.6-1.69-11.71-2.72-19.3-.51-3.79-2.17-26-3.71-47.2S42.8,78.28,42.8,78.28Z" transform="translate(16.88 -18.07)"/><path class="cls-22" d="M42.79,78.44c0,1,1.34,20.75,2.8,41.31l.92,12.87c.91,12.6,1.79,23.92,2.36,30.06.18,1.9.32,3.28.43,4,1.08,7.74,9.57,19.51,2.94,19.3-3.44-.2-9.42-1.1-14.34-4.15s-8.8-8.27-8-17.08c.49-5.55,2.52-26.89,4.63-47.26S38.83,77.72,39.63,76C41.22,72.57,41,78.89,42.79,78.44Z" transform="translate(16.88 -18.07)"/><path class="cls-23" d="M42.79,78.59c0,1.9,1.28,21.23,2.67,41.12.29,4.32.59,8.64.88,12.81.9,12.58,1.77,23.74,2.37,29.91.18,1.85.33,3.22.44,4,1.13,7.9,9.2,19.12,3.16,19.31a29.8,29.8,0,0,1-13.86-3.92c-4.83-3-8.67-8-8.11-16.5.35-5.37,2.28-26.78,4.34-47.27s4.22-40.07,5-41.77C41.12,72.86,41.13,79,42.79,78.59Z" transform="translate(16.88 -18.07)"/><path class="cls-24" d="M42.79,78.75c0,2.85,1.21,21.69,2.53,40.91.28,4.33.57,8.62.86,12.75.87,12.58,1.74,23.57,2.37,29.76.18,1.81.33,3.18.45,4,1.18,8,8.84,18.74,3.39,19.32A27.65,27.65,0,0,1,39,181.78c-4.73-2.86-8.55-7.76-8.23-15.91.2-5.2,2.05-26.68,4.05-47.29s4.14-40.33,4.82-42C41,73.15,41.25,79.14,42.79,78.75Z" transform="translate(16.88 -18.07)"/><path class="cls-25" d="M42.79,78.9c0,3.81,1.18,22.17,2.39,40.72.28,4.33.55,8.59.83,12.69.86,12.57,1.74,23.39,2.38,29.6.19,1.78.34,3.13.47,4,1.23,8.21,8.47,18.35,3.61,19.33a25.7,25.7,0,0,1-12.91-3.45c-4.64-2.77-8.46-7.51-8.37-15.34.06-5,1.82-26.57,3.77-47.29S39,78.51,39.65,76.82C40.91,73.45,41.37,79.27,42.79,78.9Z" transform="translate(16.88 -18.07)"/><path class="cls-26" d="M42.78,79.06c0,4.75,1.13,22.63,2.26,40.52.27,4.32.53,8.56.81,12.62.83,12.57,1.72,23.22,2.38,29.45.19,1.74.35,3.09.48,3.94,1.28,8.36,8.1,18,3.84,19.34a23.68,23.68,0,0,1-12.44-3.22A16.6,16.6,0,0,1,31.62,167c-.09-4.84,1.58-26.47,3.49-47.3s4-40.87,4.55-42.55C40.8,73.74,41.48,79.39,42.78,79.06Z" transform="translate(16.88 -18.07)"/><path class="cls-27" d="M42.78,79.21c0,5.71,1.07,23.11,2.12,40.32.26,4.33.51,8.55.78,12.57.82,12.56,1.7,23,2.39,29.29.19,1.71.35,3,.49,3.92,1.34,8.52,7.74,17.58,4.06,19.34a21.74,21.74,0,0,1-12-3,16.67,16.67,0,0,1-8.61-14.18c-.25-4.67,1.35-26.37,3.2-47.32S39.15,79,39.67,77.37C40.69,74,41.6,79.52,42.78,79.21Z" transform="translate(16.88 -18.07)"/><path class="cls-28" d="M42.78,79.36c0,6.67,1,23.59,2,40.13.26,4.32.5,8.52.75,12.5.81,12.56,1.69,22.87,2.4,29.14.19,1.67.36,3,.51,3.9,1.38,8.67,7.37,17.19,4.28,19.35-2.34.4-7.14-.26-11.48-2.74A16.77,16.77,0,0,1,32.47,168c-.39-4.5,1.12-26.26,2.92-47.32s3.83-41.42,4.29-43.07C40.59,74.33,41.71,79.64,42.78,79.36Z" transform="translate(16.88 -18.07)"/><path class="cls-29" d="M42.78,79.52c.06,7.61.94,24.06,1.84,39.93.25,4.32.48,8.49.73,12.44.78,12.55,1.66,22.68,2.41,29,.19,1.63.35,2.95.51,3.88,1.44,8.83,7,16.8,4.51,19.36-2.16.5-6.76-.13-11-2.5a17,17,0,0,1-8.87-13c-.55-4.32.89-26.15,2.63-47.33s3.75-41.68,4.15-43.33C40.48,74.63,41.83,79.76,42.78,79.52Z" transform="translate(16.88 -18.07)"/><path class="cls-30" d="M42.77,79.67c.07,8.57.88,24.53,1.71,39.73.24,4.33.46,8.47.7,12.38.77,12.55,1.65,22.51,2.42,28.84.19,1.59.36,2.89.52,3.85,1.49,9,6.64,16.42,4.74,19.37-2,.6-6.38,0-10.54-2.27a17.22,17.22,0,0,1-9-12.44c-.7-4.15.65-26.06,2.35-47.35s3.67-41.95,4-43.58C40.38,74.92,42,79.89,42.77,79.67Z" transform="translate(16.88 -18.07)"/><path class="cls-31" d="M42.77,79.83c.08,9.52.81,25,1.57,39.53.23,4.32.44,8.44.68,12.31.74,12.55,1.62,22.34,2.42,28.69.19,1.55.37,2.84.54,3.83,1.53,9.13,6.27,16,5,19.38-1.79.7-6,.15-10-2a17.56,17.56,0,0,1-9.13-11.86c-.85-4,.43-25.95,2.07-47.35S39.41,80.1,39.7,78.47C40.27,75.22,42.06,80,42.77,79.83Z" transform="translate(16.88 -18.07)"/><path class="cls-32" d="M42.77,80c.09,10.47.74,25.48,1.43,39.34.22,4.32.42,8.41.65,12.25.73,12.54,1.6,22.16,2.43,28.53.19,1.52.37,2.8.55,3.81,1.59,9.29,5.9,15.65,5.18,19.39-1.61.8-5.62.29-9.58-1.8a18.07,18.07,0,0,1-9.25-11.29c-1-3.8.19-25.84,1.78-47.36s3.52-42.49,3.75-44.11C40.17,75.51,42.18,80.14,42.77,80Z" transform="translate(16.88 -18.07)"/><path class="cls-33" d="M42.77,80.14c.09,11.42.67,25.94,1.3,39.14.2,4.32.39,8.39.61,12.18.72,12.54,1.58,22,2.44,28.38.19,1.48.38,2.75.56,3.8,1.64,9.43,5.54,15.25,5.41,19.38-1.43.9-5.24.44-9.1-1.56a18.69,18.69,0,0,1-9.38-10.7c-1.18-3.63,0-25.74,1.5-47.38S39.54,80.62,39.71,79C40.06,75.81,42.29,80.26,42.77,80.14Z" transform="translate(16.88 -18.07)"/><path class="cls-34" d="M42.77,80.29c.1,12.38.6,26.42,1.16,38.94q.28,6.48.59,12.13c.69,12.53,1.56,21.81,2.44,28.22.2,1.44.39,2.71.57,3.78,1.7,9.59,5.18,14.86,5.64,19.39-1.25,1-4.86.57-8.63-1.32A19.56,19.56,0,0,1,35,171.3c-1.35-3.45-.28-25.64,1.21-47.38s3.36-43,3.47-44.63C40,76.1,42.41,80.38,42.77,80.29Z" transform="translate(16.88 -18.07)"/><path class="cls-35" d="M42.76,80.45c.11,13.32.51,26.89,1,38.74q.26,6.48.56,12.06c.68,12.53,1.53,21.64,2.45,28.07.19,1.41.39,2.66.59,3.76,1.74,9.74,4.81,14.48,5.85,19.4-1.06,1.1-4.48.71-8.15-1.09a20.68,20.68,0,0,1-9.63-9.55c-1.51-3.27-.51-25.53.93-47.39s3.28-43.3,3.34-44.88C39.85,76.4,42.53,80.51,42.76,80.45Z" transform="translate(16.88 -18.07)"/><path class="cls-36" d="M42.76,80.6c.12,14.28.45,27.37.89,38.55.16,4.32.34,8.31.53,12,.66,12.52,1.51,21.46,2.46,27.92.2,1.36.4,2.6.6,3.73,1.79,9.9,4.44,14.09,6.08,19.41-.88,1.2-4.1.85-7.67-.85a22.12,22.12,0,0,1-9.76-9c-1.69-3.09-.74-25.43.64-47.41s3.2-43.56,3.21-45.14C39.74,76.69,42.64,80.63,42.76,80.6Z" transform="translate(16.88 -18.07)"/><path class="cls-37" d="M42.76,80.76c.17,21.49.62,37.76,1.26,50.28s1.48,21.29,2.46,27.77c2,13,4.43,16.76,6.92,23.13-.7,1.3-3.72,1-7.2-.62a24,24,0,0,1-9.88-8.39c-1.86-2.9-1-25.33.36-47.41s3.12-43.84,3.07-45.4C39.64,77,42.76,80.76,42.76,80.76Z" transform="translate(16.88 -18.07)"/><path class="cls-38" d="M228.56,162.11c1.06,12.32-8.31,22.49-20.95,22.49H58.22A21,21,0,0,1,36.9,162.11l3.77-86.19c.72-10.56,6.23-19.85,17.65-19.85H204c11.42,0,18.24,8.69,19.14,19.25Z" transform="translate(16.88 -18.07)"/><rect class="cls-39" x="56.19" y="58.73" width="186.56" height="9.27"/><rect class="cls-40" x="56.19" y="58.87" width="186.46" height="8.74"/><rect class="cls-41" x="56.19" y="59" width="186.35" height="8.21"/><rect class="cls-42" x="56.19" y="59.14" width="186.25" height="7.68"/><rect class="cls-43" x="56.19" y="59.27" width="186.14" height="7.15"/><rect class="cls-44" x="56.19" y="59.41" width="186.04" height="6.62"/><rect class="cls-45" x="56.19" y="59.54" width="185.93" height="6.09"/><rect class="cls-46" x="56.19" y="59.68" width="185.83" height="5.56"/><rect class="cls-47" x="56.19" y="59.81" width="185.72" height="5.04"/><rect class="cls-48" x="56.19" y="59.95" width="185.62" height="4.51"/><rect class="cls-49" x="56.19" y="60.08" width="185.51" height="3.98"/><rect class="cls-50" x="56.19" y="60.22" width="185.4" height="3.45"/><path class="cls-50" d="M204.32,32.74H58.14A20.46,20.46,0,0,0,37.77,53.28V80.71H224.71V53.28A20.47,20.47,0,0,0,204.32,32.74Z" transform="translate(16.88 -18.07)"/><rect class="cls-51" x="55.67" y="60.39" width="185.92" height="2.25"/><rect class="cls-52" x="55.67" y="57.98" width="185.92" height="3.84"/><rect class="cls-40" x="55.67" y="58.13" width="185.92" height="3.53"/><rect class="cls-41" x="55.67" y="58.28" width="185.92" height="3.22"/><rect class="cls-42" x="55.67" y="58.43" width="185.92" height="2.91"/><rect class="cls-43" x="55.67" y="58.58" width="185.92" height="2.59"/><rect class="cls-44" x="55.67" y="58.74" width="185.92" height="2.28"/><rect class="cls-45" x="55.67" y="58.89" width="185.92" height="1.97"/><rect class="cls-46" x="55.67" y="59.04" width="185.92" height="1.66"/><rect class="cls-47" x="55.67" y="59.19" width="185.92" height="1.35"/><rect class="cls-48" x="55.67" y="59.34" width="185.92" height="1.04"/><rect class="cls-49" x="55.67" y="59.5" width="185.92" height="0.73"/><rect class="cls-50" x="55.67" y="59.65" width="185.92" height="0.41"/><path class="cls-53" d="M58.54,35.55H205.05a20.44,20.44,0,0,1,18.87,12.56,20.24,20.24,0,0,0-19.44-14.6H59.1a20.24,20.24,0,0,0-19.44,14.6A20.46,20.46,0,0,1,58.54,35.55Z" transform="translate(16.88 -18.07)"/><path class="cls-50" d="M205,32.56l-146.2,0c-12.33,0-21.17,8.52-21.11,21.48V81.44l1.65-.91.07-26.46c.11-12.28,10.42-20.49,19.44-20.49H205.06A19.66,19.66,0,0,1,224.54,53.4l.09,27.31,1.58.55V54.06A21.42,21.42,0,0,0,205,32.56Z" transform="translate(16.88 -18.07)"/><path class="cls-54" d="M67.25,45.11A5.82,5.82,0,1,1,73.06,51,5.83,5.83,0,0,1,67.25,45.11Z" transform="translate(16.88 -18.07)"/><path class="cls-55" d="M73.1,38.87a6.32,6.32,0,1,0,6.27,6.31A6.3,6.3,0,0,0,73.1,38.87Zm0,12.18A5.94,5.94,0,1,1,79,45.11,5.91,5.91,0,0,1,73.06,51.05Z" transform="translate(16.88 -18.07)"/><path class="cls-54" d="M192.71,45.11A5.82,5.82,0,1,1,198.53,51,5.83,5.83,0,0,1,192.71,45.11Z" transform="translate(16.88 -18.07)"/><path class="cls-55" d="M198.56,38.87a6.32,6.32,0,1,0,6.27,6.31A6.3,6.3,0,0,0,198.56,38.87Zm0,12.18a5.94,5.94,0,1,1,5.89-5.94A5.92,5.92,0,0,1,198.53,51.05Z" transform="translate(16.88 -18.07)"/><path class="cls-50" d="M202.34,44.05c0,3-1.64,5.36-3.65,5.36h-.26c-2,0-3.66-2.4-3.66-5.36V23.44c0-3,1.65-5.37,3.66-5.37h.26c2,0,3.65,2.42,3.65,5.37Z" transform="translate(16.88 -18.07)"/><path class="cls-39" d="M198.64,45.31h-.26c-2,0-3.32-2.35-3.57-3.66l0,.92c-.3,4.21,1.64,6.48,3.67,6.48h.26c2,0,3.72-1.76,3.62-6.31V41.8C202.07,43.35,200.67,45.31,198.64,45.31Z" transform="translate(16.88 -18.07)"/><path class="cls-56" d="M198.65,45.42h-.26c-2,0-3.35-2.29-3.58-3.71l0,.83c-.28,4.09,1.63,6.4,3.66,6.4h.27c2,0,3.71-1.84,3.62-6.24v-.87C202.09,43.52,200.6,45.43,198.65,45.42Z" transform="translate(16.88 -18.07)"/><path class="cls-57" d="M198.66,45.53h-.27c-2,0-3.37-2.23-3.58-3.77l0,.75c-.24,4,1.64,6.32,3.67,6.32h.26c2,0,3.71-1.92,3.63-6.18v-.78C202.11,43.69,200.53,45.56,198.66,45.53Z" transform="translate(16.88 -18.07)"/><path class="cls-58" d="M198.67,45.65h-.27c-2,0-3.4-2.18-3.59-3.83l0,.66c-.22,3.87,1.64,6.24,3.67,6.24h.26c2,0,3.7-2,3.63-6.11v-.7C202.13,43.86,200.46,45.69,198.67,45.65Z" transform="translate(16.88 -18.07)"/><path class="cls-59" d="M198.67,45.76h-.26c-1.93,0-3.42-2.12-3.61-3.89l0,.58c-.19,3.75,1.64,6.16,3.66,6.16h.27c2,0,3.69-2.08,3.63-6V42C202.15,44,200.39,45.82,198.67,45.76Z" transform="translate(16.88 -18.07)"/><path class="cls-60" d="M198.68,45.88h-.27c-1.89,0-3.44-2.07-3.61-4l0,.49c-.17,3.64,1.63,6.08,3.66,6.08h.26c2,0,3.69-2.16,3.64-6V42C202.17,44.19,200.32,46,198.68,45.88Z" transform="translate(16.88 -18.07)"/><path class="cls-61" d="M198.69,46h-.27c-1.87,0-3.47-2-3.62-4l0,.41c-.14,3.53,1.63,6,3.65,6h.27c2,0,3.69-2.24,3.64-5.92V42C202.19,44.36,200.24,46.07,198.69,46Z" transform="translate(16.88 -18.07)"/><path class="cls-62" d="M198.7,46.11h-.27c-1.85,0-3.5-2-3.63-4.07l0,.33c-.11,3.4,1.63,5.91,3.65,5.91h.26c2,0,3.69-2.32,3.65-5.85l0-.36C202.21,44.52,200.17,46.2,198.7,46.11Z" transform="translate(16.88 -18.07)"/><path class="cls-63" d="M198.7,46.22h-.26c-1.82,0-3.53-1.91-3.64-4.13l0,.25c-.08,3.29,1.63,5.83,3.66,5.83h.26c2,0,3.68-2.4,3.65-5.79l0-.27C202.23,44.69,200.1,46.33,198.7,46.22Z" transform="translate(16.88 -18.07)"/><path class="cls-64" d="M198.71,46.34h-.27c-1.79,0-3.55-1.86-3.65-4.19l0,.16c-.05,3.18,1.63,5.75,3.65,5.75h.26c2,0,3.68-2.48,3.66-5.72l0-.19C202.25,44.86,200,46.46,198.71,46.34Z" transform="translate(16.88 -18.07)"/><path class="cls-65" d="M198.72,46.45h-.27c-1.77,0-3.57-1.8-3.66-4.25l0,.08c0,3.07,1.63,5.67,3.65,5.67h.26c2,0,3.67-2.56,3.66-5.66l0-.1C202.27,45,200,46.58,198.72,46.45Z" transform="translate(16.88 -18.07)"/><path class="cls-66" d="M198.72,46.56h-.26a4.17,4.17,0,0,1-3.67-4.3h0c0,3,1.63,5.59,3.64,5.59h.26c2,0,3.67-2.64,3.67-5.59l0,0C202.29,45.19,199.89,46.71,198.72,46.56Z" transform="translate(16.88 -18.07)"/><g class="cls-2"><g class="cls-67"><path class="cls-50" d="M194.77,23.37V44a6.38,6.38,0,0,0,1.62,4.45V18.92A6.36,6.36,0,0,0,194.77,23.37Z" transform="translate(16.88 -18.07)"/></g><g class="cls-68"><path class="cls-69" d="M194.78,44a6.34,6.34,0,0,0,1.53,4.33V19a6.33,6.33,0,0,0-1.53,4.33Z" transform="translate(16.88 -18.07)"/></g><g class="cls-70"><path class="cls-71" d="M194.78,44a6.33,6.33,0,0,0,1.45,4.21v-29a6.31,6.31,0,0,0-1.45,4.21Z" transform="translate(16.88 -18.07)"/></g><g class="cls-72"><path class="cls-73" d="M194.79,44a6.32,6.32,0,0,0,1.37,4.09V19.27a6.35,6.35,0,0,0-1.37,4.1Z" transform="translate(16.88 -18.07)"/></g><g class="cls-74"><path class="cls-75" d="M194.79,44a6.33,6.33,0,0,0,1.29,4V19.39a6.36,6.36,0,0,0-1.29,4Z" transform="translate(16.88 -18.07)"/></g><g class="cls-76"><path class="cls-77" d="M194.8,44A6.34,6.34,0,0,0,196,47.84V19.51a6.32,6.32,0,0,0-1.21,3.86Z" transform="translate(16.88 -18.07)"/></g><g class="cls-78"><path class="cls-79" d="M194.81,44a6.38,6.38,0,0,0,1.12,3.74V19.63a6.36,6.36,0,0,0-1.12,3.74Z" transform="translate(16.88 -18.07)"/></g><g class="cls-80"><path class="cls-81" d="M194.81,44a6.45,6.45,0,0,0,1,3.62V19.75a6.45,6.45,0,0,0-1,3.62Z" transform="translate(16.88 -18.07)"/></g><g class="cls-82"><path class="cls-83" d="M194.82,44a6.46,6.46,0,0,0,1,3.5V19.87a6.49,6.49,0,0,0-1,3.5Z" transform="translate(16.88 -18.07)"/></g><g class="cls-84"><path class="cls-85" d="M194.83,44a6.72,6.72,0,0,0,.87,3.38V20a6.79,6.79,0,0,0-.87,3.39Z" transform="translate(16.88 -18.07)"/></g><g class="cls-86"><path class="cls-87" d="M194.83,44a6.8,6.8,0,0,0,.8,3.26V20.1a6.87,6.87,0,0,0-.8,3.27Z" transform="translate(16.88 -18.07)"/></g><path class="cls-88" d="M194.84,44a7.13,7.13,0,0,0,.71,3.15V20.22a7.13,7.13,0,0,0-.71,3.15Z" transform="translate(16.88 -18.07)"/></g><g class="cls-2"><g class="cls-67"><path class="cls-50" d="M202.34,23.41V44a6.37,6.37,0,0,1-1.61,4.45V19A6.34,6.34,0,0,1,202.34,23.41Z" transform="translate(16.88 -18.07)"/></g><g class="cls-68"><path class="cls-69" d="M202.34,44a6.34,6.34,0,0,1-1.53,4.33V19.09a6.32,6.32,0,0,1,1.53,4.32Z" transform="translate(16.88 -18.07)"/></g><g class="cls-70"><path class="cls-71" d="M202.33,44a6.28,6.28,0,0,1-1.45,4.21v-29a6.25,6.25,0,0,1,1.45,4.2Z" transform="translate(16.88 -18.07)"/></g><g class="cls-72"><path class="cls-73" d="M202.33,44A6.27,6.27,0,0,1,201,48.12V19.32a6.29,6.29,0,0,1,1.37,4.09Z" transform="translate(16.88 -18.07)"/></g><g class="cls-74"><path class="cls-75" d="M202.32,44A6.33,6.33,0,0,1,201,48V19.44a6.35,6.35,0,0,1,1.28,4Z" transform="translate(16.88 -18.07)"/></g><g class="cls-76"><path class="cls-77" d="M202.32,44a6.31,6.31,0,0,1-1.21,3.85V19.56a6.31,6.31,0,0,1,1.21,3.85Z" transform="translate(16.88 -18.07)"/></g><g class="cls-78"><path class="cls-79" d="M202.31,44a6.35,6.35,0,0,1-1.12,3.73V19.68a6.35,6.35,0,0,1,1.12,3.73Z" transform="translate(16.88 -18.07)"/></g><g class="cls-80"><path class="cls-81" d="M202.31,44a6.48,6.48,0,0,1-1,3.62V19.8a6.42,6.42,0,0,1,1,3.61Z" transform="translate(16.88 -18.07)"/></g><g class="cls-82"><path class="cls-83" d="M202.3,44a6.49,6.49,0,0,1-1,3.5V19.92a6.43,6.43,0,0,1,1,3.49Z" transform="translate(16.88 -18.07)"/></g><g class="cls-84"><path class="cls-85" d="M202.3,44a6.65,6.65,0,0,1-.88,3.38V20a6.62,6.62,0,0,1,.88,3.38Z" transform="translate(16.88 -18.07)"/></g><g class="cls-86"><path class="cls-87" d="M202.29,44a6.83,6.83,0,0,1-.79,3.26V20.15a6.8,6.8,0,0,1,.79,3.26Z" transform="translate(16.88 -18.07)"/></g><path class="cls-88" d="M202.29,44a7,7,0,0,1-.72,3.14V20.27a6.92,6.92,0,0,1,.72,3.14Z" transform="translate(16.88 -18.07)"/></g><path class="cls-50" d="M77.05,44.05c0,3-1.65,5.36-3.66,5.36h-.26c-2,0-3.66-2.4-3.66-5.36V23.44c0-3,1.65-5.37,3.66-5.37h.26c2,0,3.66,2.42,3.66,5.37Z" transform="translate(16.88 -18.07)"/><path class="cls-39" d="M73.34,45.31h-.26c-2,0-3.32-2.35-3.57-3.66l0,.92c-.31,4.21,1.63,6.48,3.67,6.48h.26c2,0,3.72-1.76,3.62-6.31V41.8C76.77,43.35,75.37,45.31,73.34,45.31Z" transform="translate(16.88 -18.07)"/><path class="cls-56" d="M73.35,45.42h-.26c-2,0-3.35-2.29-3.58-3.71l0,.83c-.27,4.09,1.64,6.4,3.67,6.4h.27c2,0,3.71-1.84,3.62-6.24v-.87C76.79,43.52,75.3,45.43,73.35,45.42Z" transform="translate(16.88 -18.07)"/><path class="cls-57" d="M73.36,45.53h-.27c-2,0-3.37-2.23-3.59-3.77l0,.75c-.25,4,1.64,6.32,3.67,6.32h.26c2,0,3.71-1.92,3.63-6.18v-.78C76.81,43.69,75.23,45.56,73.36,45.53Z" transform="translate(16.88 -18.07)"/><path class="cls-58" d="M73.36,45.65H73.1c-1.95,0-3.4-2.18-3.6-3.83l0,.66c-.22,3.87,1.64,6.24,3.67,6.24h.26c2,0,3.7-2,3.63-6.11v-.7C76.83,43.86,75.16,45.69,73.36,45.65Z" transform="translate(16.88 -18.07)"/><path class="cls-59" d="M73.37,45.76h-.26c-1.93,0-3.42-2.12-3.61-3.89l0,.58c-.19,3.75,1.63,6.16,3.66,6.16h.26c2,0,3.7-2.08,3.64-6V42C76.85,44,75.09,45.82,73.37,45.76Z" transform="translate(16.88 -18.07)"/><path class="cls-60" d="M73.38,45.88h-.27c-1.9,0-3.44-2.07-3.61-4l0,.49c-.17,3.64,1.63,6.08,3.66,6.08h.26c2,0,3.7-2.16,3.64-6V42C76.87,44.19,75,46,73.38,45.88Z" transform="translate(16.88 -18.07)"/><path class="cls-61" d="M73.39,46h-.27c-1.87,0-3.47-2-3.62-4l0,.41c-.14,3.53,1.63,6,3.65,6h.26c2,0,3.7-2.24,3.65-5.92V42C76.89,44.36,74.94,46.07,73.39,46Z" transform="translate(16.88 -18.07)"/><path class="cls-62" d="M73.39,46.11h-.26c-1.85,0-3.5-2-3.64-4.07l0,.33c-.11,3.4,1.64,5.91,3.66,5.91h.26c2,0,3.69-2.32,3.65-5.85v-.36C76.91,44.52,74.87,46.2,73.39,46.11Z" transform="translate(16.88 -18.07)"/><path class="cls-63" d="M73.4,46.22h-.26c-1.83,0-3.53-1.91-3.65-4.13l0,.25c-.08,3.29,1.63,5.83,3.65,5.83h.27c2,0,3.68-2.4,3.65-5.79l0-.27C76.93,44.69,74.8,46.33,73.4,46.22Z" transform="translate(16.88 -18.07)"/><path class="cls-64" d="M73.41,46.34h-.27c-1.79,0-3.55-1.86-3.65-4.19l0,.16c-.06,3.18,1.63,5.75,3.65,5.75h.26c2,0,3.68-2.48,3.66-5.72l0-.19C77,44.86,74.73,46.46,73.41,46.34Z" transform="translate(16.88 -18.07)"/><path class="cls-65" d="M73.41,46.45h-.26a4.18,4.18,0,0,1-3.66-4.25l0,.08c0,3.07,1.63,5.67,3.65,5.67h.26c2,0,3.67-2.56,3.67-5.66v-.1C77,45,74.66,46.58,73.41,46.45Z" transform="translate(16.88 -18.07)"/><path class="cls-66" d="M73.42,46.56h-.26a4.17,4.17,0,0,1-3.67-4.3h0c0,3,1.63,5.59,3.64,5.59h.26c2,0,3.68-2.64,3.68-5.59v0C77,45.19,74.59,46.71,73.42,46.56Z" transform="translate(16.88 -18.07)"/><g class="cls-2"><g class="cls-67"><path class="cls-50" d="M69.47,23.37V44a6.42,6.42,0,0,0,1.61,4.45V18.92A6.4,6.4,0,0,0,69.47,23.37Z" transform="translate(16.88 -18.07)"/></g><g class="cls-68"><path class="cls-69" d="M69.47,44A6.35,6.35,0,0,0,71,48.31V19a6.33,6.33,0,0,0-1.54,4.33Z" transform="translate(16.88 -18.07)"/></g><g class="cls-70"><path class="cls-71" d="M69.48,44a6.33,6.33,0,0,0,1.45,4.21v-29a6.31,6.31,0,0,0-1.45,4.21Z" transform="translate(16.88 -18.07)"/></g><g class="cls-72"><path class="cls-73" d="M69.49,44a6.27,6.27,0,0,0,1.37,4.09V19.27a6.29,6.29,0,0,0-1.37,4.1Z" transform="translate(16.88 -18.07)"/></g><g class="cls-74"><path class="cls-75" d="M69.49,44a6.33,6.33,0,0,0,1.29,4V19.39a6.36,6.36,0,0,0-1.29,4Z" transform="translate(16.88 -18.07)"/></g><g class="cls-76"><path class="cls-77" d="M69.5,44a6.41,6.41,0,0,0,1.2,3.86V19.51a6.38,6.38,0,0,0-1.2,3.86Z" transform="translate(16.88 -18.07)"/></g><g class="cls-78"><path class="cls-79" d="M69.51,44a6.38,6.38,0,0,0,1.12,3.74V19.63a6.36,6.36,0,0,0-1.12,3.74Z" transform="translate(16.88 -18.07)"/></g><g class="cls-80"><path class="cls-81" d="M69.51,44a6.45,6.45,0,0,0,1,3.62V19.75a6.45,6.45,0,0,0-1,3.62Z" transform="translate(16.88 -18.07)"/></g><g class="cls-82"><path class="cls-83" d="M69.52,44a6.55,6.55,0,0,0,1,3.5V19.87a6.58,6.58,0,0,0-1,3.5Z" transform="translate(16.88 -18.07)"/></g><g class="cls-84"><path class="cls-85" d="M69.52,44a6.72,6.72,0,0,0,.88,3.38V20a6.79,6.79,0,0,0-.88,3.39Z" transform="translate(16.88 -18.07)"/></g><g class="cls-86"><path class="cls-87" d="M69.53,44a6.92,6.92,0,0,0,.79,3.26V20.1a7,7,0,0,0-.79,3.27Z" transform="translate(16.88 -18.07)"/></g><path class="cls-88" d="M69.54,44a7.13,7.13,0,0,0,.71,3.15V20.22a7.13,7.13,0,0,0-.71,3.15Z" transform="translate(16.88 -18.07)"/></g><g class="cls-2"><g class="cls-67"><path class="cls-50" d="M77.05,23.41V44a6.38,6.38,0,0,1-1.62,4.45V19A6.35,6.35,0,0,1,77.05,23.41Z" transform="translate(16.88 -18.07)"/></g><g class="cls-68"><path class="cls-69" d="M77,44a6.34,6.34,0,0,1-1.53,4.33V19.09A6.32,6.32,0,0,1,77,23.41Z" transform="translate(16.88 -18.07)"/></g><g class="cls-70"><path class="cls-71" d="M77,44a6.33,6.33,0,0,1-1.45,4.21v-29A6.3,6.3,0,0,1,77,23.41Z" transform="translate(16.88 -18.07)"/></g><g class="cls-72"><path class="cls-73" d="M77,44a6.32,6.32,0,0,1-1.37,4.09V19.32A6.34,6.34,0,0,1,77,23.41Z" transform="translate(16.88 -18.07)"/></g><g class="cls-74"><path class="cls-75" d="M77,44a6.33,6.33,0,0,1-1.28,4V19.44a6.35,6.35,0,0,1,1.28,4Z" transform="translate(16.88 -18.07)"/></g><g class="cls-76"><path class="cls-77" d="M77,44a6.31,6.31,0,0,1-1.21,3.85V19.56A6.31,6.31,0,0,1,77,23.41Z" transform="translate(16.88 -18.07)"/></g><g class="cls-78"><path class="cls-79" d="M77,44a6.35,6.35,0,0,1-1.12,3.73V19.68A6.35,6.35,0,0,1,77,23.41Z" transform="translate(16.88 -18.07)"/></g><g class="cls-80"><path class="cls-81" d="M77,44A6.4,6.4,0,0,1,76,47.65V19.8A6.34,6.34,0,0,1,77,23.41Z" transform="translate(16.88 -18.07)"/></g><g class="cls-82"><path class="cls-83" d="M77,44a6.49,6.49,0,0,1-1,3.5V19.92a6.43,6.43,0,0,1,1,3.49Z" transform="translate(16.88 -18.07)"/></g><g class="cls-84"><path class="cls-85" d="M77,44a6.65,6.65,0,0,1-.88,3.38V20A6.62,6.62,0,0,1,77,23.41Z" transform="translate(16.88 -18.07)"/></g><g class="cls-86"><path class="cls-87" d="M77,44a6.83,6.83,0,0,1-.8,3.26V20.15a6.8,6.8,0,0,1,.8,3.26Z" transform="translate(16.88 -18.07)"/></g><path class="cls-88" d="M77,44a7.09,7.09,0,0,1-.71,3.14V20.27A7.05,7.05,0,0,1,77,23.41Z" transform="translate(16.88 -18.07)"/></g><path class="cls-54" d="M99.79,45.11A5.82,5.82,0,1,1,105.61,51,5.83,5.83,0,0,1,99.79,45.11Z" transform="translate(16.88 -18.07)"/><path class="cls-55" d="M105.64,38.87a6.32,6.32,0,1,0,6.27,6.31A6.3,6.3,0,0,0,105.64,38.87Zm0,12.18a5.94,5.94,0,1,1,5.89-5.94A5.92,5.92,0,0,1,105.61,51.05Z" transform="translate(16.88 -18.07)"/><path class="cls-50" d="M109.59,44.05c0,3-1.65,5.36-3.65,5.36h-.27c-2,0-3.66-2.4-3.66-5.36V23.44c0-3,1.65-5.37,3.66-5.37h.27c2,0,3.65,2.42,3.65,5.37Z" transform="translate(16.88 -18.07)"/><path class="cls-39" d="M105.89,45.31h-.27c-2,0-3.32-2.35-3.57-3.66l0,.92c-.3,4.21,1.64,6.48,3.67,6.48H106c2,0,3.72-1.76,3.62-6.31V41.8C109.31,43.35,107.92,45.31,105.89,45.31Z" transform="translate(16.88 -18.07)"/><path class="cls-56" d="M105.9,45.42h-.27c-2,0-3.35-2.29-3.58-3.71l0,.83c-.28,4.09,1.64,6.4,3.67,6.4H106c2,0,3.71-1.84,3.62-6.24v-.87C109.33,43.52,107.85,45.43,105.9,45.42Z" transform="translate(16.88 -18.07)"/><path class="cls-57" d="M105.9,45.53h-.26c-2,0-3.38-2.23-3.59-3.77l0,.75c-.25,4,1.63,6.32,3.66,6.32H106c2,0,3.7-1.92,3.63-6.18v-.78C109.35,43.69,107.77,45.56,105.9,45.53Z" transform="translate(16.88 -18.07)"/><path class="cls-58" d="M105.91,45.65h-.27c-2,0-3.39-2.18-3.59-3.83l0,.66c-.22,3.87,1.63,6.24,3.66,6.24H106c2,0,3.71-2,3.64-6.11v-.7C109.37,43.86,107.7,45.69,105.91,45.65Z" transform="translate(16.88 -18.07)"/><path class="cls-59" d="M105.92,45.76h-.27c-1.92,0-3.42-2.12-3.6-3.89l0,.58c-.2,3.75,1.63,6.16,3.66,6.16H106c2,0,3.7-2.08,3.64-6V42C109.39,44,107.63,45.82,105.92,45.76Z" transform="translate(16.88 -18.07)"/><path class="cls-60" d="M105.92,45.88h-.26c-1.9,0-3.45-2.07-3.62-4l0,.49c-.16,3.64,1.64,6.08,3.66,6.08h.26c2,0,3.7-2.16,3.65-6V42C109.41,44.19,107.56,46,105.92,45.88Z" transform="translate(16.88 -18.07)"/><path class="cls-61" d="M105.93,46h-.26c-1.88,0-3.48-2-3.63-4l0,.41c-.14,3.53,1.63,6,3.66,6h.26c2,0,3.69-2.24,3.65-5.92V42C109.43,44.36,107.49,46.07,105.93,46Z" transform="translate(16.88 -18.07)"/><path class="cls-62" d="M105.94,46.11h-.27c-1.85,0-3.5-2-3.63-4.07l0,.33c-.11,3.4,1.63,5.91,3.65,5.91h.26c2,0,3.69-2.32,3.66-5.85v-.36C109.45,44.52,107.42,46.2,105.94,46.11Z" transform="translate(16.88 -18.07)"/><path class="cls-63" d="M105.94,46.22h-.26c-1.82,0-3.53-1.91-3.64-4.13l0,.25c-.08,3.29,1.63,5.83,3.65,5.83h.26c2,0,3.68-2.4,3.66-5.79v-.27C109.47,44.69,107.34,46.33,105.94,46.22Z" transform="translate(16.88 -18.07)"/><path class="cls-64" d="M106,46.34h-.26c-1.8,0-3.55-1.86-3.65-4.19l0,.16c-.06,3.18,1.63,5.75,3.64,5.75h.26c2,0,3.69-2.48,3.67-5.72v-.19C109.49,44.86,107.27,46.46,106,46.34Z" transform="translate(16.88 -18.07)"/><path class="cls-65" d="M106,46.45h-.27c-1.77,0-3.57-1.8-3.66-4.25l0,.08c0,3.07,1.63,5.67,3.65,5.67h.26c2,0,3.68-2.56,3.67-5.66v-.1C109.51,45,107.2,46.58,106,46.45Z" transform="translate(16.88 -18.07)"/><path class="cls-66" d="M106,46.56h-.26a4.18,4.18,0,0,1-3.67-4.3h0c0,3,1.63,5.59,3.65,5.59h.26c2,0,3.67-2.64,3.67-5.59l0,0C109.53,45.19,107.13,46.71,106,46.56Z" transform="translate(16.88 -18.07)"/><g class="cls-2"><g class="cls-67"><path class="cls-50" d="M102,23.37V44a6.38,6.38,0,0,0,1.62,4.45V18.92A6.36,6.36,0,0,0,102,23.37Z" transform="translate(16.88 -18.07)"/></g><g class="cls-68"><path class="cls-69" d="M102,44a6.39,6.39,0,0,0,1.53,4.33V19A6.37,6.37,0,0,0,102,23.37Z" transform="translate(16.88 -18.07)"/></g><g class="cls-70"><path class="cls-71" d="M102,44a6.33,6.33,0,0,0,1.45,4.21v-29A6.31,6.31,0,0,0,102,23.37Z" transform="translate(16.88 -18.07)"/></g><g class="cls-72"><path class="cls-73" d="M102,44a6.32,6.32,0,0,0,1.37,4.09V19.27a6.35,6.35,0,0,0-1.37,4.1Z" transform="translate(16.88 -18.07)"/></g><g class="cls-74"><path class="cls-75" d="M102,44a6.27,6.27,0,0,0,1.29,4V19.39a6.3,6.3,0,0,0-1.29,4Z" transform="translate(16.88 -18.07)"/></g><g class="cls-76"><path class="cls-77" d="M102,44a6.34,6.34,0,0,0,1.21,3.86V19.51A6.32,6.32,0,0,0,102,23.37Z" transform="translate(16.88 -18.07)"/></g><g class="cls-78"><path class="cls-79" d="M102.05,44a6.46,6.46,0,0,0,1.12,3.74V19.63a6.43,6.43,0,0,0-1.12,3.74Z" transform="translate(16.88 -18.07)"/></g><g class="cls-80"><path class="cls-81" d="M102.06,44a6.45,6.45,0,0,0,1,3.62V19.75a6.45,6.45,0,0,0-1,3.62Z" transform="translate(16.88 -18.07)"/></g><g class="cls-82"><path class="cls-83" d="M102.06,44a6.55,6.55,0,0,0,1,3.5V19.87a6.58,6.58,0,0,0-1,3.5Z" transform="translate(16.88 -18.07)"/></g><g class="cls-84"><path class="cls-85" d="M102.07,44a6.72,6.72,0,0,0,.87,3.38V20a6.79,6.79,0,0,0-.87,3.39Z" transform="translate(16.88 -18.07)"/></g><g class="cls-86"><path class="cls-87" d="M102.08,44a6.8,6.8,0,0,0,.79,3.26V20.1a6.87,6.87,0,0,0-.79,3.27Z" transform="translate(16.88 -18.07)"/></g><path class="cls-88" d="M102.08,44a7.27,7.27,0,0,0,.71,3.15V20.22a7.27,7.27,0,0,0-.71,3.15Z" transform="translate(16.88 -18.07)"/></g><g class="cls-2"><g class="cls-67"><path class="cls-50" d="M109.59,23.41V44A6.38,6.38,0,0,1,108,48.48V19A6.35,6.35,0,0,1,109.59,23.41Z" transform="translate(16.88 -18.07)"/></g><g class="cls-68"><path class="cls-69" d="M109.58,44a6.34,6.34,0,0,1-1.53,4.33V19.09a6.32,6.32,0,0,1,1.53,4.32Z" transform="translate(16.88 -18.07)"/></g><g class="cls-70"><path class="cls-71" d="M109.58,44a6.33,6.33,0,0,1-1.45,4.21v-29a6.3,6.3,0,0,1,1.45,4.2Z" transform="translate(16.88 -18.07)"/></g><g class="cls-72"><path class="cls-73" d="M109.57,44a6.27,6.27,0,0,1-1.37,4.09V19.32a6.29,6.29,0,0,1,1.37,4.09Z" transform="translate(16.88 -18.07)"/></g><g class="cls-74"><path class="cls-75" d="M109.57,44a6.27,6.27,0,0,1-1.29,4V19.44a6.29,6.29,0,0,1,1.29,4Z" transform="translate(16.88 -18.07)"/></g><g class="cls-76"><path class="cls-77" d="M109.56,44a6.31,6.31,0,0,1-1.2,3.85V19.56a6.31,6.31,0,0,1,1.2,3.85Z" transform="translate(16.88 -18.07)"/></g><g class="cls-78"><path class="cls-79" d="M109.56,44a6.35,6.35,0,0,1-1.13,3.73V19.68a6.35,6.35,0,0,1,1.13,3.73Z" transform="translate(16.88 -18.07)"/></g><g class="cls-80"><path class="cls-81" d="M109.55,44a6.48,6.48,0,0,1-1,3.62V19.8a6.42,6.42,0,0,1,1,3.61Z" transform="translate(16.88 -18.07)"/></g><g class="cls-82"><path class="cls-83" d="M109.54,44a6.58,6.58,0,0,1-1,3.5V19.92a6.51,6.51,0,0,1,1,3.49Z" transform="translate(16.88 -18.07)"/></g><g class="cls-84"><path class="cls-85" d="M109.54,44a6.65,6.65,0,0,1-.88,3.38V20a6.62,6.62,0,0,1,.88,3.38Z" transform="translate(16.88 -18.07)"/></g><g class="cls-86"><path class="cls-87" d="M109.53,44a6.83,6.83,0,0,1-.79,3.26V20.15a6.8,6.8,0,0,1,.79,3.26Z" transform="translate(16.88 -18.07)"/></g><path class="cls-88" d="M109.53,44a7.09,7.09,0,0,1-.71,3.14V20.27a7.05,7.05,0,0,1,.71,3.14Z" transform="translate(16.88 -18.07)"/></g><path class="cls-54" d="M132.33,45.11A5.82,5.82,0,1,1,138.15,51,5.84,5.84,0,0,1,132.33,45.11Z" transform="translate(16.88 -18.07)"/><path class="cls-55" d="M138.19,38.87a6.32,6.32,0,1,0,6.27,6.31A6.3,6.3,0,0,0,138.19,38.87Zm0,12.18A5.94,5.94,0,1,1,144,45.11,5.91,5.91,0,0,1,138.15,51.05Z" transform="translate(16.88 -18.07)"/><path class="cls-50" d="M142.14,44.05c0,3-1.65,5.36-3.66,5.36h-.26c-2,0-3.66-2.4-3.66-5.36V23.44c0-3,1.65-5.37,3.66-5.37h.26c2,0,3.66,2.42,3.66,5.37Z" transform="translate(16.88 -18.07)"/><path class="cls-39" d="M138.43,45.31h-.26c-2,0-3.32-2.35-3.57-3.66l0,.92c-.31,4.21,1.63,6.48,3.66,6.48h.27c2,0,3.71-1.76,3.62-6.31V41.8C141.86,43.35,140.46,45.31,138.43,45.31Z" transform="translate(16.88 -18.07)"/><path class="cls-56" d="M138.44,45.42h-.26c-2,0-3.35-2.29-3.58-3.71l0,.83c-.28,4.09,1.63,6.4,3.66,6.4h.26c2,0,3.72-1.84,3.63-6.24v-.87C141.88,43.52,140.39,45.43,138.44,45.42Z" transform="translate(16.88 -18.07)"/><path class="cls-57" d="M138.45,45.53h-.27c-2,0-3.37-2.23-3.58-3.77l0,.75c-.25,4,1.64,6.32,3.67,6.32h.26c2,0,3.71-1.92,3.63-6.18v-.78C141.9,43.69,140.32,45.56,138.45,45.53Z" transform="translate(16.88 -18.07)"/><path class="cls-58" d="M138.45,45.65h-.26c-1.95,0-3.4-2.18-3.6-3.83l0,.66c-.22,3.87,1.64,6.24,3.66,6.24h.27c2,0,3.7-2,3.63-6.11v-.7C141.92,43.86,140.25,45.69,138.45,45.65Z" transform="translate(16.88 -18.07)"/><path class="cls-59" d="M138.46,45.76h-.26c-1.93,0-3.43-2.12-3.61-3.89l0,.58c-.19,3.75,1.63,6.16,3.66,6.16h.26c2,0,3.7-2.08,3.64-6V42C141.94,44,140.18,45.82,138.46,45.76Z" transform="translate(16.88 -18.07)"/><path class="cls-60" d="M138.47,45.88h-.27c-1.89,0-3.44-2.07-3.61-4l0,.49c-.17,3.64,1.63,6.08,3.65,6.08h.27c2,0,3.69-2.16,3.64-6V42C142,44.19,140.11,46,138.47,45.88Z" transform="translate(16.88 -18.07)"/><path class="cls-61" d="M138.47,46h-.26c-1.87,0-3.47-2-3.62-4l0,.41c-.14,3.53,1.63,6,3.65,6h.26c2,0,3.7-2.24,3.65-5.92V42C142,44.36,140,46.07,138.47,46Z" transform="translate(16.88 -18.07)"/><path class="cls-62" d="M138.48,46.11h-.26c-1.85,0-3.5-2-3.63-4.07l0,.33c-.12,3.4,1.63,5.91,3.65,5.91h.26c2,0,3.69-2.32,3.65-5.85v-.36C142,44.52,140,46.2,138.48,46.11Z" transform="translate(16.88 -18.07)"/><path class="cls-63" d="M138.49,46.22h-.27c-1.82,0-3.52-1.91-3.64-4.13l0,.25c-.08,3.29,1.63,5.83,3.65,5.83h.26c2,0,3.69-2.4,3.66-5.79l0-.27C142,44.69,139.89,46.33,138.49,46.22Z" transform="translate(16.88 -18.07)"/><path class="cls-64" d="M138.49,46.34h-.26c-1.79,0-3.55-1.86-3.65-4.19l0,.16c-.05,3.18,1.63,5.75,3.65,5.75h.26c2,0,3.68-2.48,3.66-5.72l0-.19C142,44.86,139.82,46.46,138.49,46.34Z" transform="translate(16.88 -18.07)"/><path class="cls-65" d="M138.5,46.45h-.26a4.18,4.18,0,0,1-3.66-4.25l0,.08c0,3.07,1.63,5.67,3.64,5.67h.27c2,0,3.67-2.56,3.66-5.66l0-.1C142.05,45,139.75,46.58,138.5,46.45Z" transform="translate(16.88 -18.07)"/><path class="cls-66" d="M138.51,46.56h-.27a4.17,4.17,0,0,1-3.66-4.3h0c0,3,1.63,5.59,3.64,5.59h.26c2,0,3.68-2.64,3.68-5.59v0C142.07,45.19,139.67,46.71,138.51,46.56Z" transform="translate(16.88 -18.07)"/><g class="cls-2"><g class="cls-67"><path class="cls-50" d="M134.56,23.37V44a6.38,6.38,0,0,0,1.62,4.45V18.92A6.36,6.36,0,0,0,134.56,23.37Z" transform="translate(16.88 -18.07)"/></g><g class="cls-68"><path class="cls-69" d="M134.56,44a6.35,6.35,0,0,0,1.54,4.33V19a6.33,6.33,0,0,0-1.54,4.33Z" transform="translate(16.88 -18.07)"/></g><g class="cls-70"><path class="cls-71" d="M134.57,44A6.33,6.33,0,0,0,136,48.19v-29a6.31,6.31,0,0,0-1.45,4.21Z" transform="translate(16.88 -18.07)"/></g><g class="cls-72"><path class="cls-73" d="M134.58,44A6.27,6.27,0,0,0,136,48.07V19.27a6.29,6.29,0,0,0-1.37,4.1Z" transform="translate(16.88 -18.07)"/></g><g class="cls-74"><path class="cls-75" d="M134.58,44a6.27,6.27,0,0,0,1.29,4V19.39a6.3,6.3,0,0,0-1.29,4Z" transform="translate(16.88 -18.07)"/></g><g class="cls-76"><path class="cls-77" d="M134.59,44a6.34,6.34,0,0,0,1.21,3.86V19.51a6.32,6.32,0,0,0-1.21,3.86Z" transform="translate(16.88 -18.07)"/></g><g class="cls-78"><path class="cls-79" d="M134.6,44a6.38,6.38,0,0,0,1.12,3.74V19.63a6.36,6.36,0,0,0-1.12,3.74Z" transform="translate(16.88 -18.07)"/></g><g class="cls-80"><path class="cls-81" d="M134.6,44a6.45,6.45,0,0,0,1,3.62V19.75a6.45,6.45,0,0,0-1,3.62Z" transform="translate(16.88 -18.07)"/></g><g class="cls-82"><path class="cls-83" d="M134.61,44a6.46,6.46,0,0,0,1,3.5V19.87a6.49,6.49,0,0,0-1,3.5Z" transform="translate(16.88 -18.07)"/></g><g class="cls-84"><path class="cls-85" d="M134.62,44a6.62,6.62,0,0,0,.87,3.38V20a6.68,6.68,0,0,0-.87,3.39Z" transform="translate(16.88 -18.07)"/></g><g class="cls-86"><path class="cls-87" d="M134.62,44a6.8,6.8,0,0,0,.79,3.26V20.1a6.87,6.87,0,0,0-.79,3.27Z" transform="translate(16.88 -18.07)"/></g><path class="cls-88" d="M134.63,44a7.13,7.13,0,0,0,.71,3.15V20.22a7.13,7.13,0,0,0-.71,3.15Z" transform="translate(16.88 -18.07)"/></g><g class="cls-2"><g class="cls-67"><path class="cls-50" d="M142.14,23.41V44a6.38,6.38,0,0,1-1.62,4.45V19A6.35,6.35,0,0,1,142.14,23.41Z" transform="translate(16.88 -18.07)"/></g><g class="cls-68"><path class="cls-69" d="M142.13,44a6.3,6.3,0,0,1-1.54,4.33V19.09a6.27,6.27,0,0,1,1.54,4.32Z" transform="translate(16.88 -18.07)"/></g><g class="cls-70"><path class="cls-71" d="M142.12,44a6.33,6.33,0,0,1-1.45,4.21v-29a6.3,6.3,0,0,1,1.45,4.2Z" transform="translate(16.88 -18.07)"/></g><g class="cls-72"><path class="cls-73" d="M142.12,44a6.32,6.32,0,0,1-1.37,4.09V19.32a6.34,6.34,0,0,1,1.37,4.09Z" transform="translate(16.88 -18.07)"/></g><g class="cls-74"><path class="cls-75" d="M142.11,44a6.27,6.27,0,0,1-1.29,4V19.44a6.29,6.29,0,0,1,1.29,4Z" transform="translate(16.88 -18.07)"/></g><g class="cls-76"><path class="cls-77" d="M142.11,44a6.31,6.31,0,0,1-1.21,3.85V19.56a6.31,6.31,0,0,1,1.21,3.85Z" transform="translate(16.88 -18.07)"/></g><g class="cls-78"><path class="cls-79" d="M142.1,44A6.35,6.35,0,0,1,141,47.76V19.68a6.35,6.35,0,0,1,1.12,3.73Z" transform="translate(16.88 -18.07)"/></g><g class="cls-80"><path class="cls-81" d="M142.1,44a6.4,6.4,0,0,1-1,3.62V19.8a6.34,6.34,0,0,1,1,3.61Z" transform="translate(16.88 -18.07)"/></g><g class="cls-82"><path class="cls-83" d="M142.09,44a6.49,6.49,0,0,1-1,3.5V19.92a6.43,6.43,0,0,1,1,3.49Z" transform="translate(16.88 -18.07)"/></g><g class="cls-84"><path class="cls-85" d="M142.09,44a6.65,6.65,0,0,1-.88,3.38V20a6.62,6.62,0,0,1,.88,3.38Z" transform="translate(16.88 -18.07)"/></g><g class="cls-86"><path class="cls-87" d="M142.08,44a6.83,6.83,0,0,1-.8,3.26V20.15a6.8,6.8,0,0,1,.8,3.26Z" transform="translate(16.88 -18.07)"/></g><path class="cls-88" d="M142.07,44a7.09,7.09,0,0,1-.71,3.14V20.27a7.05,7.05,0,0,1,.71,3.14Z" transform="translate(16.88 -18.07)"/></g><path class="cls-54" d="M162.42,45.11A5.82,5.82,0,1,1,168.23,51,5.83,5.83,0,0,1,162.42,45.11Z" transform="translate(16.88 -18.07)"/><path class="cls-55" d="M168.27,38.87a6.32,6.32,0,1,0,6.27,6.31A6.3,6.3,0,0,0,168.27,38.87Zm0,12.18a5.94,5.94,0,1,1,5.89-5.94A5.91,5.91,0,0,1,168.23,51.05Z" transform="translate(16.88 -18.07)"/><path class="cls-50" d="M172.21,44.05c0,3-1.64,5.36-3.65,5.36h-.26c-2,0-3.66-2.4-3.66-5.36V23.44c0-3,1.65-5.37,3.66-5.37h.26c2,0,3.65,2.42,3.65,5.37Z" transform="translate(16.88 -18.07)"/><path class="cls-39" d="M168.51,45.31h-.26c-2,0-3.32-2.35-3.57-3.66l0,.92c-.31,4.21,1.63,6.48,3.67,6.48h.26c2,0,3.71-1.76,3.62-6.31V41.8C171.94,43.35,170.54,45.31,168.51,45.31Z" transform="translate(16.88 -18.07)"/><path class="cls-56" d="M168.52,45.42h-.27c-2,0-3.34-2.29-3.57-3.71l0,.83c-.27,4.09,1.64,6.4,3.67,6.4h.26c2,0,3.72-1.84,3.63-6.24v-.87C172,43.52,170.47,45.43,168.52,45.42Z" transform="translate(16.88 -18.07)"/><path class="cls-57" d="M168.53,45.53h-.27c-2,0-3.37-2.23-3.59-3.77l0,.75c-.25,4,1.64,6.32,3.67,6.32h.26c2,0,3.71-1.92,3.63-6.18v-.78C172,43.69,170.4,45.56,168.53,45.53Z" transform="translate(16.88 -18.07)"/><path class="cls-58" d="M168.53,45.65h-.26c-2,0-3.4-2.18-3.6-3.83l0,.66c-.22,3.87,1.64,6.24,3.66,6.24h.27c2,0,3.7-2,3.63-6.11v-.7C172,43.86,170.33,45.69,168.53,45.65Z" transform="translate(16.88 -18.07)"/><path class="cls-59" d="M168.54,45.76h-.26c-1.93,0-3.43-2.12-3.61-3.89l0,.58c-.19,3.75,1.63,6.16,3.66,6.16h.26c2,0,3.7-2.08,3.64-6V42C172,44,170.25,45.82,168.54,45.76Z" transform="translate(16.88 -18.07)"/><path class="cls-60" d="M168.55,45.88h-.27c-1.9,0-3.44-2.07-3.61-4l0,.49c-.17,3.64,1.63,6.08,3.65,6.08h.27c2,0,3.69-2.16,3.64-6V42C172,44.19,170.18,46,168.55,45.88Z" transform="translate(16.88 -18.07)"/><path class="cls-61" d="M168.55,46h-.26c-1.87,0-3.47-2-3.62-4l0,.41c-.14,3.53,1.63,6,3.65,6h.26c2,0,3.69-2.24,3.65-5.92V42C172.05,44.36,170.11,46.07,168.55,46Z" transform="translate(16.88 -18.07)"/><path class="cls-62" d="M168.56,46.11h-.26c-1.85,0-3.5-2-3.64-4.07l0,.33c-.11,3.4,1.64,5.91,3.66,5.91h.26c2,0,3.69-2.32,3.65-5.85v-.36C172.07,44.52,170,46.2,168.56,46.11Z" transform="translate(16.88 -18.07)"/><path class="cls-63" d="M168.57,46.22h-.27c-1.82,0-3.52-1.91-3.64-4.13l0,.25c-.08,3.29,1.63,5.83,3.65,5.83h.26c2,0,3.69-2.4,3.66-5.79l0-.27C172.09,44.69,170,46.33,168.57,46.22Z" transform="translate(16.88 -18.07)"/><path class="cls-64" d="M168.58,46.34h-.27c-1.79,0-3.55-1.86-3.65-4.19l0,.16c-.06,3.18,1.63,5.75,3.65,5.75h.26c2,0,3.68-2.48,3.66-5.72l0-.19C172.11,44.86,169.9,46.46,168.58,46.34Z" transform="translate(16.88 -18.07)"/><path class="cls-65" d="M168.58,46.45h-.26a4.18,4.18,0,0,1-3.66-4.25l0,.08c0,3.07,1.63,5.67,3.64,5.67h.26c2,0,3.68-2.56,3.67-5.66l0-.1C172.13,45,169.82,46.58,168.58,46.45Z" transform="translate(16.88 -18.07)"/><path class="cls-66" d="M168.59,46.56h-.26a4.17,4.17,0,0,1-3.67-4.3h0c0,3,1.63,5.59,3.64,5.59h.26c2,0,3.67-2.64,3.67-5.59l0,0C172.15,45.19,169.75,46.71,168.59,46.56Z" transform="translate(16.88 -18.07)"/><g class="cls-2"><g class="cls-67"><path class="cls-50" d="M164.64,23.37V44a6.42,6.42,0,0,0,1.61,4.45V18.92A6.4,6.4,0,0,0,164.64,23.37Z" transform="translate(16.88 -18.07)"/></g><g class="cls-68"><path class="cls-69" d="M164.64,44a6.35,6.35,0,0,0,1.54,4.33V19a6.33,6.33,0,0,0-1.54,4.33Z" transform="translate(16.88 -18.07)"/></g><g class="cls-70"><path class="cls-71" d="M164.65,44a6.33,6.33,0,0,0,1.45,4.21v-29a6.31,6.31,0,0,0-1.45,4.21Z" transform="translate(16.88 -18.07)"/></g><g class="cls-72"><path class="cls-73" d="M164.66,44A6.27,6.27,0,0,0,166,48.07V19.27a6.29,6.29,0,0,0-1.37,4.1Z" transform="translate(16.88 -18.07)"/></g><g class="cls-74"><path class="cls-75" d="M164.66,44A6.27,6.27,0,0,0,166,48V19.39a6.3,6.3,0,0,0-1.29,4Z" transform="translate(16.88 -18.07)"/></g><g class="cls-76"><path class="cls-77" d="M164.67,44a6.41,6.41,0,0,0,1.2,3.86V19.51a6.38,6.38,0,0,0-1.2,3.86Z" transform="translate(16.88 -18.07)"/></g><g class="cls-78"><path class="cls-79" d="M164.67,44a6.39,6.39,0,0,0,1.13,3.74V19.63a6.36,6.36,0,0,0-1.13,3.74Z" transform="translate(16.88 -18.07)"/></g><g class="cls-80"><path class="cls-81" d="M164.68,44a6.45,6.45,0,0,0,1,3.62V19.75a6.45,6.45,0,0,0-1,3.62Z" transform="translate(16.88 -18.07)"/></g><g class="cls-82"><path class="cls-83" d="M164.69,44a6.55,6.55,0,0,0,.95,3.5V19.87a6.58,6.58,0,0,0-.95,3.5Z" transform="translate(16.88 -18.07)"/></g><g class="cls-84"><path class="cls-85" d="M164.69,44a6.62,6.62,0,0,0,.88,3.38V20a6.69,6.69,0,0,0-.88,3.39Z" transform="translate(16.88 -18.07)"/></g><g class="cls-86"><path class="cls-87" d="M164.7,44a6.8,6.8,0,0,0,.79,3.26V20.1a6.87,6.87,0,0,0-.79,3.27Z" transform="translate(16.88 -18.07)"/></g><path class="cls-88" d="M164.71,44a7.13,7.13,0,0,0,.71,3.15V20.22a7.13,7.13,0,0,0-.71,3.15Z" transform="translate(16.88 -18.07)"/></g><g class="cls-2"><g class="cls-67"><path class="cls-50" d="M172.21,23.41V44a6.37,6.37,0,0,1-1.61,4.45V19A6.34,6.34,0,0,1,172.21,23.41Z" transform="translate(16.88 -18.07)"/></g><g class="cls-68"><path class="cls-69" d="M172.21,44a6.35,6.35,0,0,1-1.54,4.33V19.09a6.32,6.32,0,0,1,1.54,4.32Z" transform="translate(16.88 -18.07)"/></g><g class="cls-70"><path class="cls-71" d="M172.2,44a6.33,6.33,0,0,1-1.45,4.21v-29a6.3,6.3,0,0,1,1.45,4.2Z" transform="translate(16.88 -18.07)"/></g><g class="cls-72"><path class="cls-73" d="M172.2,44a6.32,6.32,0,0,1-1.37,4.09V19.32a6.34,6.34,0,0,1,1.37,4.09Z" transform="translate(16.88 -18.07)"/></g><g class="cls-74"><path class="cls-75" d="M172.19,44a6.27,6.27,0,0,1-1.29,4V19.44a6.29,6.29,0,0,1,1.29,4Z" transform="translate(16.88 -18.07)"/></g><g class="cls-76"><path class="cls-77" d="M172.19,44A6.31,6.31,0,0,1,171,47.88V19.56a6.31,6.31,0,0,1,1.21,3.85Z" transform="translate(16.88 -18.07)"/></g><g class="cls-78"><path class="cls-79" d="M172.18,44a6.35,6.35,0,0,1-1.12,3.73V19.68a6.35,6.35,0,0,1,1.12,3.73Z" transform="translate(16.88 -18.07)"/></g><g class="cls-80"><path class="cls-81" d="M172.17,44a6.4,6.4,0,0,1-1,3.62V19.8a6.34,6.34,0,0,1,1,3.61Z" transform="translate(16.88 -18.07)"/></g><g class="cls-82"><path class="cls-83" d="M172.17,44a6.58,6.58,0,0,1-1,3.5V19.92a6.52,6.52,0,0,1,1,3.49Z" transform="translate(16.88 -18.07)"/></g><g class="cls-84"><path class="cls-85" d="M172.16,44a6.65,6.65,0,0,1-.88,3.38V20a6.62,6.62,0,0,1,.88,3.38Z" transform="translate(16.88 -18.07)"/></g><g class="cls-86"><path class="cls-87" d="M172.16,44a6.83,6.83,0,0,1-.8,3.26V20.15a6.8,6.8,0,0,1,.8,3.26Z" transform="translate(16.88 -18.07)"/></g><path class="cls-88" d="M172.15,44a7.09,7.09,0,0,1-.71,3.14V20.27a7.05,7.05,0,0,1,.71,3.14Z" transform="translate(16.88 -18.07)"/></g><polygon class="cls-89" points="71.72 104.7 98.03 120.75 160.9 76.81 92.56 152.06 71.72 104.7"/><text class="cls-90" transform="translate(90.3 55.34)">Fedesoft</text><path class="cls-91" d="M248.74,151a53.57,53.57,0,1,1-53.28-53.86A53.56,53.56,0,0,1,248.74,151Z" transform="translate(16.88 -18.07)"/><path class="cls-92" d="M239.05,151a43.88,43.88,0,1,1-43.64-44.12A43.88,43.88,0,0,1,239.05,151Z" transform="translate(16.88 -18.07)"/><line class="cls-93" x1="211.81" y1="92.46" x2="211.77" y2="100.51"/><line class="cls-93" x1="211.41" y1="165.65" x2="211.37" y2="173.7"/><line class="cls-93" x1="170.97" y1="132.86" x2="179.02" y2="132.9"/><line class="cls-93" x1="244.16" y1="133.26" x2="252.21" y2="133.3"/><line class="cls-93" x1="182.94" y1="104.28" x2="188.62" y2="109.99"/><line class="cls-93" x1="234.56" y1="156.17" x2="240.24" y2="161.88"/><line class="cls-93" x1="183.59" y1="162.51" x2="189.14" y2="156.68"/><line class="cls-93" x1="234.04" y1="109.48" x2="239.59" y2="103.65"/><polygon class="cls-94" points="213.49 132.04 212.3 112.77 211.02 132.03 213.49 132.04"/><polygon class="cls-94" points="212.26 131.41 181.67 132.54 212.25 133.88 212.26 131.41"/><rect class="cls-95" x="188.41" y="120.5" width="0.58" height="38.07" transform="translate(-27.59 94.85) rotate(-29.97)"/><path class="cls-94" d="M197.94,150.73a2.57,2.57,0,1,1-2.55-2.59A2.56,2.56,0,0,1,197.94,150.73Z" transform="translate(16.88 -18.07)"/></g></g></svg>